# xmcd
#
# Track frame offsets: 
#        200
#        12017
#        26335
#        48640
#        74272
#        85637
#        99357
#        114832
#        125995
#        145980
#        157937
#        171685
#        191227
#
# Disc length: 2820 seconds
#
# Revision: 3
# Processed by: cddbd v1.5.2PL0 Copyright (c) Steve Scherf et al.
# Submitted via: ExactAudioCopy v0.95b4
#
DISCID=ad0b020d
DTITLE=Greg Piccolo - Heavy Juice
DYEAR=1990
DGENRE=Jazz
TTITLE0=The Hammer
TTITLE1=Baby I'm Gone
TTITLE2=Bolo Blues
TTITLE3=The Freeze
TTITLE4=It's Obdacious
TTITLE5=Mushmouth
TTITLE6=Brother Jug's Sermon
TTITLE7=Plaid Laces
TTITLE8=Count Your Blessings
TTITLE9=Highballin' Daddy
TTITLE10=Hawk's Barrel House
TTITLE11=Pic's Gospel Groove
TTITLE12=Big Boss Man
EXTD=YEAR: 1990
EXTT0=
EXTT1=
EXTT2=
EXTT3=
EXTT4=
EXTT5=
EXTT6=
EXTT7=
EXTT8=
EXTT9=
EXTT10=
EXTT11=
EXTT12=
PLAYORDER=
